<?xml version="1.0" standalone="no"?>
<svg xmlns="http://www.w3.org/2000/svg" viewBox="0 0 101.27 116.936" width="101.27" height="116.936"><polygon fill="#d61216" points="101.27,29.234 101.27,87.702 50.635,116.936 0,87.702 0,29.234 50.635,0"></polygon><g fill="white" color="white" transform="translate(28.634999999999998 22.5) scale(0.44)"><svg width="100.0" height="100.0" x="0.0" y="0.0" viewBox="0 0 100 100"><g><polygon fill="currentColor" points="4.702,89.006 93.809,89.006 93.809,16.101 53.306,16.101 53.306,24.201 85.708,24.201    85.708,80.905 12.803,80.905 12.803,64.704 4.702,64.704  "></polygon><g><rect x="4.702" y="24.201" fill="currentColor" width="8.101" height="8.101"></rect><rect x="37.104" y="40.402" fill="currentColor" width="8.101" height="8.101"></rect><polygon fill="currentColor" points="45.205,24.201 45.205,16.101 29.004,16.101 29.004,8 20.903,8 20.903,16.101 12.803,16.101     12.803,24.201 20.903,24.201 20.903,32.302 12.803,32.302 12.803,40.402 20.903,40.402 20.903,48.503 4.702,48.503 4.702,56.604     20.903,56.604 20.903,64.704 29.004,64.704 29.004,56.604 37.104,56.604 37.104,48.503 29.004,48.503 29.004,40.402     37.104,40.402 37.104,32.302 29.004,32.302 29.004,24.201   "></polygon></g></g></svg></g><path fill="white" fill-rule="nonzero" d="M13.13 0L13.13 3.47L6.10 3.47Q4.87 3.47 4.38 3.95Q3.89 4.42 3.89 5.60L3.89 5.60L3.89 8.37L11.20 8.37L10.92 11.84L3.89 11.84L3.89 19.94L0 19.94L0 4.06Q0 1.85 0.97 0.92Q1.93 0 4.28 0L4.28 0L13.13 0Z" transform="translate(44.069, 74.5)"></path></svg>