<?xml version="1.0" standalone="no"?>
<svg xmlns="http://www.w3.org/2000/svg" viewBox="0 0 105.912 29" width="105.912" height="29"><g fill="#d61216" color="#d61216" transform="translate(0, 0) scale(0.29)"><svg width="100.0" height="100.0" x="0.0" y="0.0" viewBox="0 0 100 100"><g><polygon fill="currentColor" points="4.702,89.006 93.809,89.006 93.809,16.101 53.306,16.101 53.306,24.201 85.708,24.201    85.708,80.905 12.803,80.905 12.803,64.704 4.702,64.704  "></polygon><g><rect x="4.702" y="24.201" fill="currentColor" width="8.101" height="8.101"></rect><rect x="37.104" y="40.402" fill="currentColor" width="8.101" height="8.101"></rect><polygon fill="currentColor" points="45.205,24.201 45.205,16.101 29.004,16.101 29.004,8 20.903,8 20.903,16.101 12.803,16.101     12.803,24.201 20.903,24.201 20.903,32.302 12.803,32.302 12.803,40.402 20.903,40.402 20.903,48.503 4.702,48.503 4.702,56.604     20.903,56.604 20.903,64.704 29.004,64.704 29.004,56.604 37.104,56.604 37.104,48.503 29.004,48.503 29.004,40.402     37.104,40.402 37.104,32.302 29.004,32.302 29.004,24.201   "></polygon></g></g></svg></g><line x1="41" y1="1" x2="41" y2="28" stroke="#152452" stroke-linecap="round"></line><path fill="#152452" fill-rule="nonzero" d="M11.26 0.14L11.26 3.12L5.23 3.12Q4.18 3.12 3.76 3.53Q3.34 3.94 3.34 4.94L3.34 4.94L3.34 7.32L9.60 7.32L9.36 10.30L3.34 10.30L3.34 17.23L0 17.23L0 3.62Q0 1.73 0.83 0.94Q1.66 0.14 3.67 0.14L3.67 0.14L11.26 0.14ZM24.70 14.26L24.70 17.23L19.61 17.23Q16.73 17.23 15.44 16.12Q14.16 15 14.16 12.48L14.16 12.48L14.16 0.14L17.50 0.14L17.50 12.48Q17.50 13.49 17.95 13.87Q18.41 14.26 19.61 14.26L19.61 14.26L24.70 14.26ZM36.60 0.14L39.91 0.14L39.91 11.38Q39.91 14.16 38.03 15.77Q36.14 17.38 33.38 17.38Q30.62 17.38 28.74 15.77Q26.86 14.16 26.86 11.38L26.86 11.38L26.86 0.14L30.19 0.14L30.19 11.26Q30.19 12.84 31.07 13.62Q31.94 14.40 33.38 14.40Q34.82 14.40 35.71 13.62Q36.60 12.84 36.60 11.26L36.60 11.26L36.60 0.14ZM54.91 12.19L54.91 12.19Q54.91 14.62 53.14 16.00Q51.36 17.38 48.60 17.38L48.60 17.38Q46.42 17.38 44.38 16.18L44.38 16.18Q43.37 15.55 42.72 14.41Q42.07 13.27 42.07 11.81L42.07 11.81L45.10 11.66Q45.10 12.96 46.20 13.68Q47.30 14.40 48.65 14.40L48.65 14.40Q51.65 14.40 51.65 12.29L51.65 12.29Q51.65 10.56 49.61 10.25L49.61 10.25L46.82 9.96Q44.74 9.65 43.51 8.47Q42.29 7.30 42.29 5.09Q42.29 2.88 44.04 1.44Q45.79 0 48.47 0Q51.14 0 52.78 1.36Q54.41 2.71 54.41 4.85L54.41 4.85L51.43 4.99Q51.02 2.90 48.62 2.90L48.62 2.90Q47.16 2.90 46.33 3.53Q45.50 4.15 45.50 5.00Q45.50 5.86 46.10 6.35Q46.70 6.84 47.59 6.96L47.59 6.96L50.33 7.25Q54.91 7.87 54.91 12.19Z" transform="translate(51, 5.884)"></path></svg>