<?xml version="1.0" standalone="no"?>
<svg xmlns="http://www.w3.org/2000/svg" width="135.48" height="28.959999999999997" viewBox="0 0 135.48 28.959999999999997"><g fill="#ffffff" color="#ffffff" transform="translate(0 0) scale(0.2896)"><svg width="100.0" height="100.0" x="0.0" y="0.0" viewBox="0 0 100 100"><g><polygon fill="currentColor" points="4.702,89.006 93.809,89.006 93.809,16.101 53.306,16.101 53.306,24.201 85.708,24.201    85.708,80.905 12.803,80.905 12.803,64.704 4.702,64.704  "></polygon><g><rect x="4.702" y="24.201" fill="currentColor" width="8.101" height="8.101"></rect><rect x="37.104" y="40.402" fill="currentColor" width="8.101" height="8.101"></rect><polygon fill="currentColor" points="45.205,24.201 45.205,16.101 29.004,16.101 29.004,8 20.903,8 20.903,16.101 12.803,16.101     12.803,24.201 20.903,24.201 20.903,32.302 12.803,32.302 12.803,40.402 20.903,40.402 20.903,48.503 4.702,48.503 4.702,56.604     20.903,56.604 20.903,64.704 29.004,64.704 29.004,56.604 37.104,56.604 37.104,48.503 29.004,48.503 29.004,40.402     37.104,40.402 37.104,32.302 29.004,32.302 29.004,24.201   "></polygon></g></g></svg></g><path fill="#ffffff" fill-rule="nonzero" d="M18.76 0.24L18.76 5.20L8.72 5.20Q6.96 5.20 6.26 5.88Q5.56 6.56 5.56 8.24L5.56 8.24L5.56 12.20L16 12.20L15.60 17.16L5.56 17.16L5.56 28.72L0 28.72L0 6.04Q0 2.88 1.38 1.56Q2.76 0.24 6.12 0.24L6.12 0.24L18.76 0.24ZM41.16 23.76L41.16 28.72L32.68 28.72Q27.88 28.72 25.74 26.86Q23.60 25 23.60 20.80L23.60 20.80L23.60 0.24L29.16 0.24L29.16 20.80Q29.16 22.48 29.92 23.12Q30.68 23.76 32.68 23.76L32.68 23.76L41.16 23.76ZM61 0.24L66.52 0.24L66.52 18.96Q66.52 23.60 63.38 26.28Q60.24 28.96 55.64 28.96Q51.04 28.96 47.90 26.28Q44.76 23.60 44.76 18.96L44.76 18.96L44.76 0.24L50.32 0.24L50.32 18.76Q50.32 21.40 51.78 22.70Q53.24 24 55.64 24Q58.04 24 59.52 22.70Q61 21.40 61 18.76L61 18.76L61 0.24ZM91.52 20.32L91.52 20.32Q91.52 24.36 88.56 26.66Q85.60 28.96 81 28.96L81 28.96Q77.36 28.96 73.96 26.96L73.96 26.96Q72.28 25.92 71.20 24.02Q70.12 22.12 70.12 19.68L70.12 19.68L75.16 19.44Q75.16 21.60 77 22.80Q78.84 24 81.08 24L81.08 24Q86.08 24 86.08 20.48L86.08 20.48Q86.08 17.60 82.68 17.08L82.68 17.08L78.04 16.60Q74.56 16.08 72.52 14.12Q70.48 12.16 70.48 8.48Q70.48 4.80 73.40 2.40Q76.32 0 80.78 0Q85.24 0 87.96 2.26Q90.68 4.52 90.68 8.08L90.68 8.08L85.72 8.32Q85.04 4.84 81.04 4.84L81.04 4.84Q78.60 4.84 77.22 5.88Q75.84 6.92 75.84 8.34Q75.84 9.76 76.84 10.58Q77.84 11.40 79.32 11.60L79.32 11.60L83.88 12.08Q91.52 13.12 91.52 20.32Z" transform="translate(43.96 0) scale(1)"></path></svg>